<svg xmlns="http://www.w3.org/2000/svg" xmlns:xlink="http://www.w3.org/1999/xlink" viewBox="0 0 503 503.0001"><defs><clipPath id="a" transform="translate(-4.5 -5)"><rect x="4.5" y="5" width="503" height="503.0001" style="fill:none"/></clipPath></defs><title>imessage</title><circle cx="251.5" cy="251.5" r="251.5" style="fill:#08ba0c"/><rect width="503" height="503.0001" style="fill:none"/><g style="clip-path:url(#a)"><path d="M251.1635,140.4231c-72.12,0-130.5866,46.685-130.5866,104.2744,0,29.262,15.1149,55.6924,39.4286,74.629,6.91,37.83-26.4828,44.8211-26.4828,44.8211s-4.17,5.3354,6.1912,7.306c41.7021,7.6005,75.4238-25.8566,75.4238-25.8566l.0382-.67a161.5421,161.5421,0,0,0,35.9876,4.0428c72.123,0,130.5865-46.685,130.5865-104.2744S323.2865,140.4231,251.1635,140.4231Z" transform="translate(-4.5 -5)" style="fill:#fff;fill-rule:evenodd"/></g></svg>