<svg xmlns="http://www.w3.org/2000/svg" xmlns:xlink="http://www.w3.org/1999/xlink" viewBox="0 0 125.3333 125.3333"><defs><linearGradient id="a" x1="-566.2805" y1="-493.3287" x2="-494.3862" y2="-596.0046" gradientTransform="translate(593 607.3333)" gradientUnits="userSpaceOnUse"><stop offset="0" stop-color="#ffb900"/><stop offset="1" stop-color="#9100eb"/></linearGradient></defs><title>instagram</title><circle cx="62.6667" cy="62.6667" r="62.6667" style="fill:url(#a)"/><path d="M82.333,104H45.667A21.6912,21.6912,0,0,1,24,82.333V45.667A21.6912,21.6912,0,0,1,45.667,24H82.333A21.6905,21.6905,0,0,1,104,45.667V82.334A21.69,21.69,0,0,1,82.333,104ZM45.667,30.667a15.017,15.017,0,0,0-15,15V82.334a15.017,15.017,0,0,0,15,15H82.333a15.017,15.017,0,0,0,15-15V45.667a15.017,15.017,0,0,0-15-15Z" transform="translate(-1 -1.6667)" style="fill:#fff"/><path d="M64,84A20,20,0,1,1,84,64,20.0233,20.0233,0,0,1,64,84Zm0-33.333A13.333,13.333,0,1,0,77.333,64,13.3479,13.3479,0,0,0,64,50.667Z" transform="translate(-1 -1.6667)" style="fill:#fff"/><circle cx="84.25" cy="41.0833" r="4.583" style="fill:#fff"/></svg>