<svg xmlns="http://www.w3.org/2000/svg" viewBox="0 0 97.5459 97.5651"><title>whatsapp</title><path d="M98.99,49.7769A48.773,48.773,0,1,1,50.2172,1,48.79,48.79,0,0,1,98.99,49.7769Z" transform="translate(-1.4444 -1)" style="fill:#0d9f16"/><path d="M78.4428,42.9805A28.94,28.94,0,0,0,50.1953,20.634a29.4871,29.4871,0,0,0-5.5675.57A28.9445,28.9445,0,0,0,24.902,63.4287a1.6,1.6,0,0,1,.1259,1.3032q-1.86,6.774-3.7056,13.5329c-.2.7406-.2.7406.5405.5481,4.6828-1.2289,9.358-2.4434,14.037-3.6867a1.3563,1.3563,0,0,1,1.0469.1183,28.9216,28.9216,0,0,0,41.4961-32.264ZM54.245,73.3045a20.6906,20.6906,0,0,1-3.3129.326,24.3569,24.3569,0,0,1-13.056-3.4645,1.7454,1.7454,0,0,0-1.4843-.2222c-2.5654.71-5.149,1.3472-7.7182,2.028-.5406.163-.5921.0447-.4549-.4443.6808-2.4426,1.3214-4.8708,2.0249-7.2846a1.9965,1.9965,0,0,0-.2631-1.8065,23.66,23.66,0,0,1,.8514-26.9034c6.1375-8.1731,14.4812-11.5194,24.4646-9.3876,9.8386,2.0734,16.11,8.4248,18.4158,18.2126A23.9843,23.9843,0,0,1,54.245,73.3045Z" transform="translate(-1.4444 -1)" style="fill:#fcfcfc;fill-rule:evenodd"/><path d="M57.7687,63.4583a9.8539,9.8539,0,0,1-3.0059-.4594c-6.644-1.91-11.63-6.07-15.6358-11.5489a16.5736,16.5736,0,0,1-3.3826-6.7516A8.1045,8.1045,0,0,1,38.3613,36.88,4.7293,4.7293,0,0,1,42.2,36.3472a1.4936,1.4936,0,0,1,.6777.77c.84,1.9991,1.6694,3.9679,2.4911,5.967a1.3894,1.3894,0,0,1-.0849,1.14,9.0741,9.0741,0,0,1-1.7883,2.3834,1.1856,1.1856,0,0,0-.1592,1.6588,19.8171,19.8171,0,0,0,9.8393,8.4543,1.1716,1.1716,0,0,0,1.5322-.37c.7073-.8733,1.4548-1.7474,2.1249-2.65a1.1775,1.1775,0,0,1,1.6322-.43c1.4032.6368,2.8057,1.3031,4.209,1.9695.3146.1334.6254.2964.9362.4443,1.4215.7111,1.4071.7255,1.285,2.2947-.2373,3.065-2.5358,4.5759-5.26,5.331A6.0681,6.0681,0,0,1,57.7687,63.4583Z" transform="translate(-1.4444 -1)" style="fill:#fdfdfd;fill-rule:evenodd"/></svg>